# AST/ASF file generated using VICON BodyLanguage
# -----------------------------------------------
:version 1.10
:name VICON
:units
  mass 1.0
  length 0.45
  angle deg
:documentation
   .ast/.asf automatically generated from VICON data using
   VICON BodyBuilder and BodyLanguage model FoxedUp or BRILLIANT.MOD
:root
   order TX TY TZ RX RY RZ
   axis XYZ
   position 0 0 0  
   orientation 0 0 0 
:bonedata
  begin
     id 1 
     name lhipjoint
     direction 0.660183 -0.676772 0.325788 
     length 2.75133 
     axis 0 0 0  XYZ
  end
  begin
     id 2 
     name lfemur
     direction 0.34202 -0.939693 0  
     length 7.70317  
     axis 0 0 20  XYZ
    dof rx ry rz
    limits (-160.0 20.0)
           (-70.0 70.0)
           (-60.0 70.0)
  end
  begin
     id 3 
     name ltibia
     direction 0.342105 -0.939662 0   
     length 7.18701   
     axis 0 0 20   XYZ
    dof rx
    limits (-10.0 170.0)
  end
  begin
     id 4 
     name lfoot
     direction 0.14163 -0.389126 0.910232   
     length 2.41719   
     axis -90 7.62852e-016 20   XYZ
    dof rx rz
    limits (-45.0 90.0)
           (-70.0 20.0)
  end
  begin
     id 5 
     name ltoes
     direction 1.53533e-011 -4.21926e-011 1   
     length 1.18611   
     axis -90 7.62852e-016 20   XYZ
    dof rx
    limits (-90.0 20.0)
  end
  begin
     id 6 
     name rhipjoint
     direction -0.6658 -0.67229 0.323631   
     length 2.76968  
     axis 0 0 0  XYZ 
  end
  begin
     id 7 
     name rfemur
     direction -0.34202 -0.939693 0   
     length 7.92547   
     axis 0 0 -20   XYZ
    dof rx ry rz
    limits (-160.0 20.0)
           (-70.0 70.0)
           (-70.0 60.0)
  end
  begin
     id 8 
     name rtibia
     direction -0.342022 -0.939692 0   
     length 7.22641   
     axis 0 0 -20   XYZ
    dof rx
    limits (-10.0 170.0)
 end
 begin
     id 9 
     name rfoot
     direction -0.105675 -0.29034 0.951071   
     length 2.48149  
     axis -90 -7.62852e-016 -20   XYZ
    dof rx rz
    limits (-45.0 90.0)
           (-20.0 70.0)
  end
  begin
     id 10 
     name rtoes
     direction -1.5349e-011 -4.21859e-011 1   
     length 1.23343   
     axis -90 -7.62852e-016 -20   XYZ
    dof rx
    limits (-90.0 20.0)
  end
  begin
     id 11 
     name lowerback
     direction 0.0104173 0.993624 -0.112266   
     length 2.00527   
     axis 0 0 0   XYZ
    dof rx ry rz
    limits (-20.0 45.0)
           (-30.0 30.0)
           (-30.0 30.0)
  end
  begin
     id 12 
     name upperback
     direction 0.00733149 0.999856 -0.0152913   
     length 2.01385   
     axis 0 0 0   XYZ
    dof rx ry rz
    limits (-20.0 45.0)
           (-30.0 30.0)
           (-30.0 30.0)
  end
  begin
     id 13 
     name thorax
     direction 0.0026304 0.999318 0.036841   
     length 2.03734   
     axis 0 0 0   XYZ
    dof rx ry rz
    limits (-20.0 45.0)
           (-30.0 30.0)
           (-30.0 30.0)
  end
  begin
     id 14 
     name lowerneck
     direction 0.0293154 0.998757 0.0403082   
     length 1.65303   
     axis 0 0 0   XYZ
    dof rx ry rz
    limits (-20.0 45.0)
           (-30.0 30.0)
           (-30.0 30.0)
  end
  begin
     id 15 
     name upperneck
     direction -0.0376619 0.998184 -0.0470083   
     length 1.60926   
     axis 0 0 0   XYZ
    dof rx ry rz
    limits (-20.0 45.0)
           (-30.0 30.0)
           (-30.0 30.0)
  end
  begin
     id 16
     name head
     direction -0.0170133 0.999635 -0.0209778  
     length 1.73625  
     axis 0 0 0   XYZ
    dof rx ry rz
    limits (-20.0 45.0)
           (-30.0 30.0)
           (-30.0 30.0)
  end
  begin
     id 17 
     name lclavicle
     direction 0.919857 0.39181 -0.0186333  
     length 3.75313  
     axis 0 0 0   XYZ
    dof ry rz
    limits (-20.0 10.0)
           (0.0 20.0)
  end
  begin
     id 18 
     name lhumerus
     direction 1 -4.48988e-011 1.44029e-027   
     length 5.49313   
     axis 180 -30 -90   XYZ
    dof rx ry rz
    limits (-60.0 90.0)
           (-90.0 90.0)
           (-90.0 90.0)
  end
  begin
     id 19
     name lradius
     direction 1 -4.48924e-011 7.46281e-027   
     length 3.29037   
     axis 180 -30 -90   XYZ
    dof rx
    limits (-10.0 170.0)
  end
  begin
     id 20
     name lwrist
     direction 1 -4.48955e-011 2.19879e-026   
     length 1.64519   
     axis -1.34358e-014 90 90   XYZ
    dof ry
    limits (-180.0 0.0)
 end
  begin
     id 21 
     name lhand
     direction 1 -4.48978e-011 4.39747e-026   
     length 0.729656   
     axis -2.80598e-014 90 90   XYZ
    dof rx rz
    limits (-90.0 90.0)
           (-45.0 45.0)
  end
  begin
     id 22 
     name lfingers
     direction 1 -4.49071e-011 8.79411e-026   
     length 0.588268   
     axis -5.61193e-014 90 90   XYZ
    dof rx
    limits (0.0 90.0)
  end
  begin
     id 23
     name lthumb
     direction 0.707107 -6.34817e-011 0.707107   
     length 0.844638   
     axis -90 45 -9.86923e-015   XYZ
    dof rx rz
    limits (-45.0 45.0)
           (-45.0 45.0)
  end
  begin
     id 24 
     name rclavicle
     direction -0.919898 0.388279 0.0550233   
     length 3.7171  
     axis 0 0 0   XYZ 
    dof ry rz
    limits (-10.0 20.0)
           (-20.0 0.0)
  end
  begin
     id 25 
     name rhumerus
     direction -1 -4.48968e-011 9.98372e-028  
     length 5.23684   
     axis 180 30 90   XYZ
    dof rx ry rz
    limits (-90.0 60.0)
           (-90.0 90.0)
           (-90.0 90.0)
  end
  begin
     id 26 
     name rradius
     direction -1 -4.48956e-011 1.01023e-026   
     length 3.38251   
     axis 180 30 90   XYZ
    dof rx
    limits (-10.0 170.0)
  end
  begin
     id 27 
     name rwrist
     direction -1 -4.4892e-011 2.19886e-026   
     length 1.69126   
     axis -1.34358e-014 -90 -90   XYZ
    dof ry
    limits (-180.0 0.0)
  end
  begin
     id 28
     name rhand
     direction -1 -4.49024e-011 4.39727e-026   
     length 0.691454   
     axis -2.80598e-014 -90 -90   XYZ
    dof rx rz
    limits (-90.0 90.0)
           (-45.0 45.0)
  end
  begin
     id 29
     name rfingers
     direction -1 -4.49097e-011 8.79388e-026   
     length 0.557468   
     axis -5.61193e-014 -90 -90   XYZ
    dof rx
    limits (0.0 90.0)
  end
  begin
     id 30
     name rthumb
     direction -0.707107 -6.34938e-011 0.707107   
     length 0.800416   
     axis -90 -45 9.86923e-015   XYZ
    dof rx rz
    limits (-45.0 45.0)
           (-45.0 45.0)
  end
:hierarchy
  begin
    root lhipjoint rhipjoint lowerback
    lhipjoint lfemur
    lfemur ltibia
    ltibia lfoot
    lfoot ltoes
    rhipjoint rfemur
    rfemur rtibia
    rtibia rfoot
    rfoot rtoes
    lowerback upperback
    upperback thorax
    thorax lowerneck lclavicle rclavicle
    lowerneck upperneck
    upperneck head
    lclavicle lhumerus
    lhumerus lradius
    lradius lwrist
    lwrist lhand lthumb
    lhand lfingers
    rclavicle rhumerus
    rhumerus rradius
    rradius rwrist
    rwrist rhand rthumb
    rhand rfingers
  end

#!OML:ASF H:\BabyWalks\Project 1\Capture day 1\Session 1\baby.ASF
:FULLY-SPECIFIED
:DEGREES
109
root -28.8197 16.6566 -0.994879 -59.7544 67.71 -43.7129
lowerback -4.63989 -1.62255 -9.87518
upperback 2.32467 -1.49863 0.28942
thorax 5.33891 -1.08677 5.7137
lowerneck 5.34564 3.21782 2.30266
upperneck 8.4195 4.08998 15.6019
head 1.47885 2.55001 4.79207
rclavicle 2.22639e-014 1.90833e-014
rhumerus -79.9373 52.0948 -110.764
rradius 83.1673
rwrist -1.35636
rhand -10.7068 7.08745
rfingers 7.12502
rthumb 15.3029 -22.3264
lclavicle 2.22639e-014 1.90833e-014
lhumerus -74.1565 -46.7531 110.738
lradius 85.4183
lwrist 7.55814
lhand -9.71955 -12.335
lfingers 7.12502
lthumb 16.2537 17.0037
rfemur 17.7543 -7.59922 31.6393
rtibia 24.1143
rfoot -21.8805 13.4361
rtoes 3.12187
lfemur 19.0658 -9.95028 1.19503
ltibia 37.049
lfoot -33.3575 24.2145
ltoes -13.8427
110
root -28.8013 16.6551 -1.02802 -59.7417 67.8173 -43.533
lowerback -4.75113 -1.60389 -9.62846
upperback 2.33554 -1.47942 0.307349
thorax 5.40184 -1.07261 5.59344
lowerneck 5.44311 3.16733 2.27497
upperneck 8.45086 4.02625 15.3752
head 1.48042 2.50954 4.71233
rclavicle -4.29375e-014 -3.49861e-014
rhumerus -80.0941 52.2249 -110.988
rradius 83.1752
rwrist -1.60245
rhand -10.9048 7.09046
rfingers 7.12502
rthumb 15.1122 -22.3378
lclavicle -4.29375e-014 -3.49861e-014
lhumerus -74.0972 -46.7707 110.632
lradius 85.4069
lwrist 7.60012
lhand -9.68841 -12.3568
lfingers 7.12502
lthumb 16.2837 16.9795
rfemur 18.0256 -7.36942 31.483
rtibia 23.9911
rfoot -22.0189 13.0298
rtoes 2.49862
lfemur 19.1629 -9.60005 1.12585
ltibia 37.1425
lfoot -33.3453 23.9041
ltoes -13.7773
111
root -28.783 16.6545 -1.0638 -59.7267 67.9721 -43.344
lowerback -4.8229 -1.58977 -9.38429
upperback 2.33798 -1.47122 0.321942
thorax 5.43524 -1.06212 5.47078
lowerneck 5.54616 3.11552 2.24477
upperneck 8.49238 3.96036 15.1249
head 1.48477 2.46783 4.62487
rclavicle -1.51076e-014 -3.18055e-014
rhumerus -80.2396 52.3399 -111.196
rradius 83.2006
rwrist -1.84275
rhand -11.06 7.09953
rfingers 7.12502
rthumb 14.9627 -22.34
lclavicle -1.51076e-014 -3.18055e-014
lhumerus -74.0743 -46.7947 110.556
lradius 85.3837
lwrist 7.64015
lhand -9.69132 -12.3707
lfingers 7.12502
lthumb 16.2809 16.9658
rfemur 18.2889 -7.10922 31.2974
rtibia 23.8923
rfoot -22.1482 12.5919
rtoes 1.91616
lfemur 19.2652 -9.25297 1.01774
ltibia 37.2105
lfoot -33.3033 23.5679
ltoes -13.7283
112
root -28.7644 16.6546 -1.10222 -59.6915 68.174 -43.1233
lowerback -4.88587 -1.57774 -9.14984
upperback 2.34826 -1.46591 0.33526
thorax 5.47286 -1.0537 5.352
lowerneck 5.66226 3.0637 2.2129
upperneck 8.52387 3.89703 14.8488
head 1.48352 2.42561 4.52791
rclavicle -2.46493e-014 -2.22639e-014
rhumerus -80.3543 52.4444 -111.366
rradius 83.2391
rwrist -2.0349
rhand -11.2084 7.11665
rfingers 7.12502
rthumb 14.8197 -22.3334
lclavicle -2.46493e-014 -2.22639e-014
lhumerus -74.0544 -46.8415 110.501
lradius 85.3394
lwrist 7.69948
lhand -9.73627 -12.361
lfingers 7.12502
lthumb 16.2376 16.979
rfemur 18.5471 -6.82089 31.0712
rtibia 23.8237
rfoot -22.267 12.143
rtoes 1.38433
lfemur 19.3835 -8.90444 0.862727
ltibia 37.2483
lfoot -33.2488 23.2025
ltoes -13.7154
113
root -28.7445 16.6556 -1.14336 -59.6019 68.4142 -42.8383
lowerback -4.93344 -1.56516 -8.91711
upperback 2.35587 -1.46168 0.346642
thorax 5.4991 -1.04515 5.23235
lowerneck 5.76919 3.01263 2.18051
upperneck 8.57217 3.83275 14.5421
head 1.48991 2.38362 4.42111
rclavicle 1.59028e-014 -9.54166e-015
rhumerus -80.4424 52.5375 -111.503
rradius 83.2957
rwrist -2.23799
rhand -11.2972 7.14887
rfingers 7.12502
rthumb 14.7342 -22.3075
lclavicle 1.59028e-014 -9.54166e-015
lhumerus -74.0537 -46.9073 110.485
lradius 85.2676
lwrist 7.77284
lhand -9.80559 -12.3494
lfingers 7.12502
lthumb 16.1709 16.9961
rfemur 18.7986 -6.49741 30.8015
rtibia 23.7911
rfoot -22.3857 11.69
rtoes 0.879309
lfemur 19.5282 -8.5477 0.656172
ltibia 37.2528
lfoot -33.1876 22.8076
ltoes -13.6854
114
root -28.7235 16.657 -1.18732 -59.4615 68.6934 -42.4897
lowerback -4.95943 -1.55273 -8.68638
upperback 2.35773 -1.46011 0.357182
thorax 5.5074 -1.03695 5.1131
lowerneck 5.87297 2.96433 2.14387
upperneck 8.6381 3.77075 14.2068
head 1.50272 2.34322 4.30583
rclavicle -1.11319e-014 -2.8625e-014
rhumerus -80.5209 52.6188 -111.622
rradius 83.3627
rwrist -2.42458
rhand -11.3591 7.19112
rfingers 7.12502
rthumb 14.6745 -22.2696
lclavicle -1.11319e-014 -2.8625e-014
lhumerus -74.0833 -46.9687 110.502
lradius 85.1839
lwrist 7.85887
lhand -9.93446 -12.3033
lfingers 7.12502
lthumb 16.0468 17.0522
rfemur 19.046 -6.14394 30.485
rtibia 23.7964
rfoot -22.5132 11.2394
rtoes 0.386504
lfemur 19.6992 -8.17778 0.400723
ltibia 37.2235
lfoot -33.1184 22.3872
ltoes -13.6546
115
root -28.7011 16.6586 -1.23407 -59.2515 69.0019 -42.0603
lowerback -5.00102 -1.53634 -8.45744
upperback 2.37056 -1.45131 0.369552
thorax 5.5354 -1.02639 4.99717
lowerneck 5.97331 2.91606 2.11337
upperneck 8.70642 3.70981 13.8348
head 1.51735 2.30299 4.17689
rclavicle -2.46493e-014 1.59028e-015
rhumerus -80.5563 52.6918 -111.691
rradius 83.4338
rwrist -2.58765
rhand -11.4742 7.22329
rfingers 7.12502
rthumb 14.5637 -22.2454
lclavicle -2.46493e-014 1.59028e-015
lhumerus -74.1072 -47.0403 110.53
lradius 85.0921
lwrist 7.95696
lhand -10.0249 -12.2757
lfingers 7.12502
lthumb 15.9596 17.0868
rfemur 19.2898 -5.75147 30.128
rtibia 23.84
rfoot -22.6547 10.7947
rtoes -0.073636
lfemur 19.9 -7.7879 0.102052
ltibia 37.1605
lfoot -33.0494 21.9335
ltoes -13.5991
116
root -28.6775 16.6607 -1.28343 -58.9815 69.3445 -41.5664
lowerback -5.05538 -1.51785 -8.23558
upperback 2.38839 -1.43809 0.383741
thorax 5.5758 -1.01447 4.88735
lowerneck 6.07514 2.86607 2.09288
upperneck 8.78022 3.6482 13.4252
head 1.53411 2.26229 4.0335
rclavicle -3.18055e-014 -3.49861e-014
rhumerus -80.5504 52.7501 -111.709
rradius 83.5115
rwrist -2.75995
rhand -11.5601 7.2562
rfingers 7.12502
rthumb 14.4808 -22.2185
lclavicle -3.18055e-014 -3.49861e-014
lhumerus -74.1349 -47.1203 110.573
lradius 84.9983
lwrist 8.06636
lhand -10.1028 -12.2442
lfingers 7.12502
lthumb 15.8847 17.1243
rfemur 19.5242 -5.32692 29.7336
rtibia 23.9174
rfoot -22.814 10.3436
rtoes -0.523993
lfemur 20.1167 -7.37514 -0.232373
ltibia 37.0676
lfoot -32.9706 21.4465
ltoes -13.5142
117
root -28.6532 16.6631 -1.33522 -58.6655 69.7197 -41.0277
lowerback -5.11794 -1.49899 -8.01993
upperback 2.40756 -1.4236 0.401321
thorax 5.62259 -1.0024 4.78462
lowerneck 6.17864 2.81311 2.08018
upperneck 8.85806 3.58446 12.9819
head 1.55239 2.22033 3.87774
rclavicle 1.35174e-014 -3.18055e-014
rhumerus -80.5283 52.7956 -111.7
rradius 83.5858
rwrist -2.8725
rhand -11.7157 7.27897
rfingers 7.12502
rthumb 14.3309 -22.2064
lclavicle 1.35174e-014 -3.18055e-014
lhumerus -74.1754 -47.2229 110.646
lradius 84.9033
lwrist 8.19569
lhand -10.149 -12.2105
lfingers 7.12502
lthumb 15.8402 17.1615
rfemur 19.7459 -4.87439 29.3123
rtibia 24.0224
rfoot -22.9889 9.87618
rtoes -0.965205
lfemur 20.3412 -6.95745 -0.601822
ltibia 36.9486
lfoot -32.9004 20.9282
ltoes -13.4242
